<?xml version="1.0" encoding="utf-8"?>
<!-- Generator: Adobe Illustrator 15.0.0, SVG Export Plug-In . SVG Version: 6.00 Build 0)  -->
<!DOCTYPE svg PUBLIC "-//W3C//DTD SVG 1.1//EN" "http://www.w3.org/Graphics/SVG/1.1/DTD/svg11.dtd">
<svg version="1.1" id="Layer_1" xmlns="http://www.w3.org/2000/svg" xmlns:xlink="http://www.w3.org/1999/xlink" x="0px" y="0px"
	 width="38px" height="38px" viewBox="0 0 38 38" enable-background="new 0 0 38 38" xml:space="preserve">
<path fill="none" stroke="#212D4F" stroke-width="2" stroke-miterlimit="10" d="M23,8c0,2.209-1.791,4-4,4s-4-1.791-4-4
	c0-0.732,0-2.268,0-3c0-2.209,1.791-4,4-4s4,1.791,4,4C23,5.732,23,7.268,23,8z M28.496,33.194l-7.113-3.401L9.438,33.194 M15,20
	l-1.002,6.624c0,0-3.892,1.753-5.482,2.581C6.925,30.036,5,31.096,5,33.688c0,2.063,1.483,3.396,3.483,3.396S15,35.794,19,34.714
	c4-1.081,7.806-2.328,7.806-2.328 M19,34.714C23,35.794,27.517,37,29.517,37S33,35.667,33,33.604c0-2.592-1.925-3.666-3.516-4.496
	c-1.591-0.828-5.482-2.608-5.482-2.608L23,20 M0.503,31.318c0,0,4.435-3.147,6.435-6.366S10.856,17.396,12,16s5-2.552,5-2.552
	v-1.986 M21,11.462v1.986c0,0,3.855,1.156,5,2.552c1.144,1.396,3.062,5.733,5.062,8.952s6.435,6.366,6.435,6.366"/>
</svg>
