<?xml version="1.0" encoding="utf-8"?>
<!-- Generator: Adobe Illustrator 15.0.0, SVG Export Plug-In . SVG Version: 6.00 Build 0)  -->
<!DOCTYPE svg PUBLIC "-//W3C//DTD SVG 1.1//EN" "http://www.w3.org/Graphics/SVG/1.1/DTD/svg11.dtd">
<svg version="1.1" id="Layer_1" xmlns="http://www.w3.org/2000/svg" xmlns:xlink="http://www.w3.org/1999/xlink" x="0px" y="0px"
	 width="38px" height="38px" viewBox="0 0 38 38" enable-background="new 0 0 38 38" xml:space="preserve">
<path fill="none" stroke="#212D4F" stroke-width="2" stroke-miterlimit="10" d="M21,0v14c3,1,3,2.831,3,4c0,1.252-1,5.875-1,5.875
	s3.253,0.322,6.313,1.008c1.034,0.231,1.749,0.867,1.749,2.055c0,1.563-1,10.063-1,10.063 M18,9c0,0-3.451,0-4,0
	c-1.657,0-3,1.344-3,3c0,1.657,1.343,3,3,3c0.549,0,3,0,3,0s-0.014,4.604,0,7c0,0-1.078,1.17-2,2C6.197,31.812,2,37,2,37h2.063
	c0,0,12.25-7.625,15.292-8S27,29,27,29v8h5"/>
</svg>
